# xmcd
#
# Track frame offsets:
#	150
#	17419
#	39803
#	50496
#	67005
#	91118
#	103692
#	125949
#	134300
#	155420
#	177467
#	195567
#	236936
#	255427
#	271122
#	304089
#
# Disc length: 4767 seconds
#
# Revision: 0
# Processed by: cddbd v1.5.1PL0 Copyright (c) Steve Scherf et al.
# Submitted via: EasyCDDAExtractor 4.6.9.1
#
DISCID=d7129d10
DTITLE=Stevie Ray Vaughan and Double Trouble - The Essential Stevie Ray Vaugha
DTITLE=n and Double Trouble [CD1]
DYEAR=2002
DGENRE=Blues
TTITLE0=Shake For Me (Live)
TTITLE1=Rude Mood - Hide Away (Live)
TTITLE2=Love Struck Baby
TTITLE3=Pride And Joy
TTITLE4=Texas Flood
TTITLE5=Mary Had a Little Lamb
TTITLE6=Lenny
TTITLE7=Scuttle Buttin'
TTITLE8=Couldn't Stand The Weather
TTITLE9=The Things (That) I Used To Do
TTITLE10=Cold Shot
TTITLE11=Tin Pan Alley (aka The Roughest Place In Town)
TTITLE12=Give Me Back My Wig
TTITLE13=Empty Arms
TTITLE14=The Sky Is Crying (Live)
TTITLE15=Voodoo Child (Slight Return) (Live)
EXTD=YEAR: 2002
EXTT0=
EXTT1=
EXTT2=
EXTT3=
EXTT4=
EXTT5=
EXTT6=
EXTT7=
EXTT8=
EXTT9=
EXTT10=
EXTT11=
EXTT12=
EXTT13=
EXTT14=
EXTT15=
PLAYORDER=
